# xmcd CD database file
#
# Track frame offsets:
#	150
#	25937
#	52007
#	76370
#	96215
#	114010
#	129417
#	155520
#	170477
#
# Disc length: 2880 seconds
#
# Revision: 0
# Processed by: cddbd v1.5.1PL0 Copyright (c) Steve Scherf et al.
# Submitted via: CDex 1.50beta9
#
DISCID=680b3e09
DTITLE=Sean Wilson - 32 Great Songs Singalong With
DYEAR=1900
DGENRE=Country
TTITLE0=Any Tipperary Town - Moonlight In Mayo - The Homes Of Donegal - Boys From The County Armagh
TTITLE1=Isle Of Innisfree - Your Lovely Irish Eyes - Maggie - Forty Shades Of Green
TTITLE2=Our House Is A Home - Pretty Little Girl From Omagh - The Gypsy - The Ferryman
TTITLE3=Back To Castleblaney - Don't Let Me Cross Over - Love Is Teasin'
TTITLE4=Shores Of Amerikay - Slievenamon - The Wild Colonial Boy
TTITLE5=Hills Around Clonmel - Golden Dreams - When My Blue Moon Turns To Gold
TTITLE6=All I Have To Offer You Is Me - Red River Valley - Be Nobody's Darling - I Can't Help It
TTITLE7=Arms Full Of Empty - The Green Fields Of Ireland - Donegal Danny
TTITLE8=Sweet Mary - My Eileen Is Waiting - The Green Glens Of Antrim - Glenswilly - Lough Sheelin Side
EXTD=
EXTT0=
EXTT1=
EXTT2=
EXTT3=
EXTT4=
EXTT5=
EXTT6=
EXTT7=
EXTT8=
PLAYORDER=
